name ./resultDataOpenSim/trcMotMarkerGrf/sub09/grf-01-04.mot
datacolumns 19
datarows 15
range 1.40400000 1.46000000
endheader

                time	     ground_force_vx	     ground_force_vy	     ground_force_vz	     ground_force_px	     ground_force_py	     ground_force_pz	   l_ground_force_vx	   l_ground_force_vy	   l_ground_force_vz	   l_ground_force_px	   l_ground_force_py	   l_ground_force_pz	     ground_torque_x	     ground_torque_y	     ground_torque_z	   l_ground_torque_x	   l_ground_torque_y	   l_ground_torque_z	
          1.40400000	        -32.56676473	        447.61643601	        -17.58543858	          1.03386074	          0.00000000	          0.12907050	          0.00000000	          0.00000000	          0.00000000	          0.00000000	          0.00000000	          0.00000000	          0.00000000	          0.73990144	          0.00000000	          0.00000000	          0.00000000	          0.00000000	
          1.40800000	        -30.48750713	        435.87731726	        -14.86763507	          1.03453532	          0.00000000	          0.12894609	          0.00000000	          0.00000000	          0.00000000	          0.00000000	          0.00000000	          0.00000000	          0.00000000	          1.02446243	          0.00000000	          0.00000000	          0.00000000	          0.00000000	
          1.41200000	        -30.19212913	        424.93950983	        -13.30217251	          1.03541877	          0.00000000	          0.12884874	          0.00000000	          0.00000000	          0.00000000	          0.00000000	          0.00000000	          0.00000000	          0.00000000	          1.31718614	          0.00000000	          0.00000000	          0.00000000	          0.00000000	
          1.41600000	        -31.03759046	        414.88776525	        -13.02559301	          1.03640546	          0.00000000	          0.12877168	          0.00000000	          0.00000000	          0.00000000	          0.00000000	          0.00000000	          0.00000000	          0.00000000	          1.57183489	          0.00000000	          0.00000000	          0.00000000	          0.00000000	
          1.42000000	        -32.14836506	        405.71850019	        -13.95460112	          1.03737370	          0.00000000	          0.12872328	          0.00000000	          0.00000000	          0.00000000	          0.00000000	          0.00000000	          0.00000000	          0.00000000	          1.74544330	          0.00000000	          0.00000000	          0.00000000	          0.00000000	
          1.42400000	        -32.64594468	        397.36308955	        -15.79943325	          1.03819542	          0.00000000	          0.12871973	          0.00000000	          0.00000000	          0.00000000	          0.00000000	          0.00000000	          0.00000000	          0.00000000	          1.81112980	          0.00000000	          0.00000000	          0.00000000	          0.00000000	
          1.42800000	        -31.87657807	        389.75213028	        -18.13140914	          1.03875061	          0.00000000	          0.12876230	          0.00000000	          0.00000000	          0.00000000	          0.00000000	          0.00000000	          0.00000000	          0.00000000	          1.76586164	          0.00000000	          0.00000000	          0.00000000	          0.00000000	
          1.43200000	        -29.58654046	        382.85367959	        -20.47544797	          1.03898280	          0.00000000	          0.12883125	          0.00000000	          0.00000000	          0.00000000	          0.00000000	          0.00000000	          0.00000000	          0.00000000	          1.63150063	          0.00000000	          0.00000000	          0.00000000	          0.00000000	
          1.43600000	        -25.98194239	        376.65421576	        -22.39693393	          1.03891967	          0.00000000	          0.12890053	          0.00000000	          0.00000000	          0.00000000	          0.00000000	          0.00000000	          0.00000000	          0.00000000	          1.44990754	          0.00000000	          0.00000000	          0.00000000	          0.00000000	
          1.44000000	        -21.64649721	        371.12829762	        -23.57339594	          1.03867781	          0.00000000	          0.12894554	          0.00000000	          0.00000000	          0.00000000	          0.00000000	          0.00000000	          0.00000000	          0.00000000	          1.27415182	          0.00000000	          0.00000000	          0.00000000	          0.00000000	
          1.44400000	        -17.35985119	        366.24952373	        -23.84210417	          1.03842272	          0.00000000	          0.12894479	          0.00000000	          0.00000000	          0.00000000	          0.00000000	          0.00000000	          0.00000000	          0.00000000	          1.15792704	          0.00000000	          0.00000000	          0.00000000	          0.00000000	
          1.44800000	        -13.88606630	        362.02747971	        -23.21050774	          1.03830409	          0.00000000	          0.12887523	          0.00000000	          0.00000000	          0.00000000	          0.00000000	          0.00000000	          0.00000000	          0.00000000	          1.14483010	          0.00000000	          0.00000000	          0.00000000	          0.00000000	
          1.45200000	        -11.78219061	        358.51744663	        -21.83262941	          1.03843000	          0.00000000	          0.12871483	          0.00000000	          0.00000000	          0.00000000	          0.00000000	          0.00000000	          0.00000000	          0.00000000	          1.25899411	          0.00000000	          0.00000000	          0.00000000	          0.00000000	
          1.45600000	        -11.25694805	        355.78936263	        -19.97065498	          1.03884503	          0.00000000	          0.12845091	          0.00000000	          0.00000000	          0.00000000	          0.00000000	          0.00000000	          0.00000000	          0.00000000	          1.49884588	          0.00000000	          0.00000000	          0.00000000	          0.00000000	
          1.46000000	        -12.11104787	        353.88667880	        -17.95353415	          1.03951939	          0.00000000	          0.12809622	          0.00000000	          0.00000000	          0.00000000	          0.00000000	          0.00000000	          0.00000000	          0.00000000	          1.83596506	          0.00000000	          0.00000000	          0.00000000	          0.00000000	
